<svg xmlns="http://www.w3.org/2000/svg" xmlns:xlink="http://www.w3.org/1999/xlink" width="512" viewBox="0 0 384 383.999986" height="512" preserveAspectRatio="xMidYMid meet"><defs><clipPath id="3d2c766bc5"><path d="M 73 131.40625 L 180.4375 131.40625 L 180.4375 258.28125 L 73 258.28125 Z M 73 131.40625 "></path></clipPath><clipPath id="db2d9242ad"><path d="M 160.75 257.96875 C 154.9375 257.96875 149.125 257.90625 143.3125 258 C 141.84375 258.03125 141 257.53125 140.15625 256.34375 L 98.4375 196.875 C 90.15625 185.125 81.875 173.40625 73.5625 161.6875 C 72.9375 160.8125 72.8125 160.15625 73.5 159.1875 L 91.6875 133.0625 C 92.75 131.53125 92.75 131.53125 93.84375 133.09375 L 143.4375 204.625 C 154.34375 220.34375 165.25 236.03125 176.125 251.75 L 179.375 256.4375 C 179.625 256.84375 180.21875 257.21875 180 257.71875 C 179.75 258.25 179.09375 257.9375 178.625 257.9375 L 160.75 257.96875 "></path></clipPath><clipPath id="d388c11c04"><path d="M 160.28125 138.3125 L 199 138.3125 L 199 258 L 160.28125 258 Z M 160.28125 138.3125 "></path></clipPath><clipPath id="d14287a0f2"><path d="M 198.28125 257.9375 C 195.8125 254.46875 193.46875 251.1875 191.15625 247.875 L 161.78125 206.125 C 160.84375 204.8125 160.4375 203.46875 160.4375 201.84375 L 160.46875 140.4375 C 160.46875 138.40625 160.5 138.375 162.59375 138.375 L 193.375 138.375 C 194.71875 138.375 196.09375 138.4375 197.4375 138.4375 C 198.28125 138.40625 198.625 138.75 198.59375 139.59375 L 198.59375 143.03125 C 198.59375 180.65625 198.59375 218.28125 198.59375 255.9375 C 198.59375 256.5 198.78125 257.125 198.28125 257.9375 "></path></clipPath><clipPath id="5fdf73e54a"><path d="M 3.90625 163 L 90 163 L 90 258 L 3.90625 258 Z M 3.90625 163 "></path></clipPath><clipPath id="4e4ad45cfe"><path d="M 3.90625 257.8125 C 4.78125 256.5625 5.5 255.46875 6.28125 254.375 L 68.4375 166.53125 C 69.03125 165.71875 69.625 164.90625 70.15625 164.0625 C 70.71875 163.15625 71.125 163.1875 71.75 164.0625 L 80.28125 176.21875 C 83.375 180.59375 86.40625 185 89.53125 189.34375 C 90.15625 190.21875 90.15625 190.84375 89.5 191.71875 L 45.90625 252.0625 C 44.71875 253.71875 43.5 255.40625 42.34375 257.0625 C 41.875 257.71875 41.34375 257.96875 40.5625 257.96875 L 4.84375 257.96875 C 4.59375 257.96875 4.375 257.90625 3.90625 257.8125 "></path></clipPath><clipPath id="4b7322ab0c"><path d="M 212.90625 178.3125 L 251 178.3125 L 251 261.59375 L 212.90625 261.59375 Z M 212.90625 178.3125 "></path></clipPath><clipPath id="054cdd544b"><path d="M 212.9375 219.9375 L 212.90625 196.84375 C 212.90625 195.6875 213.21875 194.875 214.03125 194.0625 L 228.5625 179.71875 C 229.3125 178.9375 230.09375 178.5625 231.1875 178.59375 L 249.0625 178.5625 C 250.4375 178.5625 251.03125 178.875 251 180.40625 C 250.90625 184.9375 250.9375 189.5 251 194.0625 C 251 195.3125 250.5625 195.71875 249.34375 195.6875 L 242.28125 195.65625 C 241.15625 195.625 240.6875 195.9375 240.6875 197.15625 L 240.6875 242.8125 C 240.6875 244 241.09375 244.40625 242.25 244.375 L 249.3125 244.34375 C 250.5 244.3125 251 244.625 251 245.9375 L 251 259.875 C 251 261.15625 250.5625 261.53125 249.34375 261.5 L 230.875 261.46875 C 230.0625 261.5 229.4375 261.21875 228.875 260.65625 L 213.875 245.90625 C 213.1875 245.21875 212.90625 244.5 212.90625 243.53125 L 212.9375 219.96875 "></path></clipPath><clipPath id="12108f9981"><path d="M 61.0625 214.40625 L 123 214.40625 L 123 258 L 61.0625 258 Z M 61.0625 214.40625 "></path></clipPath><clipPath id="4bc23c3ec6"><path d="M 92.03125 257.875 L 62.71875 257.875 C 62.28125 257.875 61.625 258.125 61.40625 257.5625 C 61.21875 257.125 61.6875 256.75 61.96875 256.375 L 88.28125 219.875 C 89.28125 218.46875 90.3125 217.125 91.25 215.71875 C 91.9375 214.625 92.375 214.8125 93.03125 215.75 L 106.53125 234.5 C 111.78125 241.75 117 249.03125 122.21875 256.3125 C 122.5 256.6875 123.0625 257.0625 122.8125 257.5625 C 122.5625 258.09375 121.90625 257.84375 121.4375 257.84375 L 92.03125 257.875 "></path></clipPath><clipPath id="0b72f8ad13"><path d="M 163.28125 100.4375 L 196 100.4375 L 196 132.90625 L 163.28125 132.90625 Z M 163.28125 100.4375 "></path></clipPath><clipPath id="9646758a30"><path d="M 169.28125 107.78125 C 171.75 108.09375 171.75 108.09375 173.28125 104.53125 C 171.6875 105.34375 170.46875 106.34375 169.28125 107.78125 M 186.0625 104.6875 C 187.71875 108.3125 187.84375 108.40625 189.875 107.625 C 188.90625 106.40625 187.75 105.46875 186.0625 104.6875 M 190.03125 125.6875 C 187.5625 125.21875 187.40625 125.34375 186.125 128.9375 C 187.71875 128 189 127.09375 190.03125 125.6875 M 169.1875 125.6875 C 170.3125 127 171.5 128.125 173.09375 128.65625 C 172.1875 127.21875 172.28125 124.5625 169.1875 125.6875 M 180.78125 105.46875 C 181.09375 106.28125 180.21875 107.5625 181.5625 107.875 C 182.5625 108.09375 184.03125 108.4375 184.625 107.625 C 185.125 107 183.96875 106.03125 183.4375 105.25 L 182.96875 104.6875 C 182.4375 104.1875 181.90625 103.3125 181.1875 103.59375 C 180.4375 103.84375 181 104.8125 180.78125 105.46875 M 178.46875 105.71875 C 178.46875 105.28125 178.46875 105 178.4375 104.6875 C 178.40625 104.28125 178.65625 103.6875 178.15625 103.5 C 177.71875 103.3125 177.34375 103.75 177 104.03125 C 176 104.8125 175.25 105.8125 174.71875 106.90625 C 174.5625 107.21875 174.1875 107.78125 174.8125 107.875 C 175.90625 108.03125 177.09375 108.25 178.0625 107.78125 C 178.875 107.40625 178.3125 106.34375 178.46875 105.71875 M 180.84375 127.9375 L 180.8125 127.9375 L 180.84375 128.96875 C 180.875 129.375 180.65625 129.84375 181.09375 130.0625 C 181.5 130.28125 181.8125 129.875 182.15625 129.65625 C 182.78125 129.21875 183.28125 128.65625 183.6875 128.03125 C 184.15625 127.3125 185.125 126.53125 184.71875 125.71875 C 184.40625 125.09375 183.25 125.5625 182.46875 125.46875 L 182.28125 125.46875 C 181.25 125.375 180.75 125.75 180.84375 126.75 L 180.84375 127.9375 M 178.46875 128.15625 C 178.46875 127.5 178.4375 127 178.46875 126.5 C 178.5 125.75 178.125 125.40625 177.375 125.46875 C 176.40625 125.59375 175 124.96875 174.59375 125.8125 C 174.1875 126.59375 175.28125 127.5625 175.8125 128.375 L 176 128.625 C 176.71875 129.3125 177.34375 130.28125 178.125 130.03125 C 178.90625 129.8125 178.28125 128.71875 178.46875 128.15625 M 168.15625 115.5625 C 168.71875 115.21875 170 116.1875 170.28125 114.65625 L 170.78125 111.125 C 170.875 110.65625 170.8125 110.375 170.3125 110.21875 C 168.53125 109.6875 167.3125 110.28125 166.6875 112 L 166.25 113.4375 C 165.75 115.5625 165.75 115.5625 168.15625 115.5625 M 191.21875 117.90625 C 188.96875 117.90625 188.96875 117.90625 188.75 120.15625 L 188.46875 122.21875 C 188.4375 122.59375 188.40625 123 188.9375 123.1875 C 190.40625 123.75 191.96875 123.09375 192.5 121.59375 L 192.9375 120.1875 C 193.53125 117.96875 193.5 117.90625 191.21875 117.90625 M 168.4375 117.90625 C 165.71875 117.90625 165.6875 117.9375 166.28125 120.28125 L 167 122.25 C 167.40625 123.125 169.3125 123.65625 170.40625 123.15625 C 171.375 122.6875 170.53125 121.9375 170.5625 121.34375 C 170.59375 120.84375 170.3125 120.34375 170.375 119.875 C 170.5 118.21875 169.78125 117.59375 168.4375 117.90625 M 191.1875 115.59375 C 193.40625 115.5625 193.46875 115.46875 192.9375 113.3125 L 192.46875 111.75 C 191.90625 110.25 190.8125 109.6875 189.125 110.21875 C 187.75 110.65625 188.71875 111.71875 188.71875 112.5 L 188.78125 113.375 C 188.9375 115.53125 189.0625 115.625 191.1875 115.59375 M 183.9375 115.5625 C 186.75 115.5625 186.75 115.5625 186.5625 113.40625 C 186.28125 110.1875 186.28125 110.1875 183.0625 110.1875 C 180.84375 110.1875 180.84375 110.1875 180.84375 112.375 C 180.84375 115.90625 180.5625 115.53125 183.9375 115.5625 M 175.5 115.5625 L 176.25 115.5625 C 178.625 115.53125 178.4375 115.90625 178.46875 113.3125 L 178.46875 113.21875 C 178.40625 109.78125 178.84375 110.21875 175.5625 110.1875 C 173.1875 110.1875 173.1875 110.1875 172.84375 112.4375 C 172.34375 115.5625 172.34375 115.5625 175.5 115.5625 M 178.46875 120.625 L 178.46875 119.71875 C 178.65625 118.375 178.15625 117.71875 176.71875 117.9375 L 175.96875 117.96875 C 171.9375 118.03125 172.3125 117.09375 172.9375 121.84375 C 173.09375 122.96875 173.65625 123.40625 174.75 123.28125 L 175.8125 123.28125 C 178.78125 123.25 178.4375 123.53125 178.46875 120.625 M 183.625 117.90625 C 180.375 117.9375 180.65625 117.59375 180.65625 120.0625 C 180.625 123.21875 180.65625 123.15625 183.9375 123.25 C 185.5 123.3125 186.09375 122.8125 186.375 121.28125 C 186.9375 118 186.9375 117.90625 183.625 117.90625 M 179.53125 132.71875 C 170.53125 132.59375 163.5625 125.4375 163.65625 116.40625 C 163.75 107.59375 171.0625 100.59375 180 100.71875 C 188.75 100.84375 195.78125 108.21875 195.65625 117.125 C 195.53125 125.78125 188.25 132.8125 179.53125 132.71875 "></path></clipPath><clipPath id="b2d7abcb65"><path d="M 145 81.1875 L 215 81.1875 L 215 119.6875 L 145 119.6875 Z M 145 81.1875 "></path></clipPath><clipPath id="ec10e4a432"><path d="M 180.75 81.1875 C 174.625 81.21875 170.03125 84 167 89.4375 C 166.4375 90.40625 165.90625 90.84375 164.78125 90.84375 C 164.71875 90.84375 164.625 90.8125 164.5625 90.8125 C 164.28125 90.8125 164 90.8125 163.71875 90.8125 C 158.375 90.8125 154.9375 93.34375 153.09375 98.5 C 152.8125 99.375 152.3125 99.96875 151.46875 100.34375 C 146.25 102.5625 142.53125 109.28125 147.125 116.6875 C 147.65625 117.5 148.21875 117.9375 149.15625 117.9375 C 149.21875 117.9375 149.25 117.9375 149.3125 117.9375 C 149.65625 117.9375 150.03125 117.90625 150.40625 117.90625 C 151.125 117.90625 151.875 117.9375 152.625 117.9375 C 153.15625 117.9375 153.71875 117.9375 154.25 117.875 C 154.34375 117.875 154.4375 117.875 154.53125 117.875 C 155.4375 117.875 155.75 118.28125 155.4375 119.4375 C 157.53125 118.53125 159.46875 117.84375 161.59375 116.65625 C 159.375 115.71875 157.5 114.9375 155.25 113.96875 C 155.96875 115.5625 155.34375 115.6875 154.59375 115.6875 C 154.4375 115.6875 154.3125 115.6875 154.15625 115.6875 C 154.125 115.6875 154.09375 115.6875 154.03125 115.6875 C 153.8125 115.6875 153.59375 115.6875 153.375 115.6875 C 153 115.6875 152.625 115.6875 152.21875 115.6875 C 151.71875 115.6875 151.21875 115.6875 150.75 115.71875 C 150.625 115.75 150.5625 115.75 150.46875 115.75 C 149.53125 115.75 148.9375 115.25 148.46875 114.40625 C 145.78125 109.8125 147.71875 104.0625 152.6875 102.09375 C 154.03125 101.59375 154.78125 100.84375 154.9375 99.4375 C 155.0625 98.375 155.5 97.40625 156.125 96.5625 C 157.96875 94 160.28125 92.78125 163 92.78125 C 163.875 92.78125 164.8125 92.90625 165.75 93.15625 C 166.0625 93.21875 166.3125 93.28125 166.53125 93.28125 C 167.25 93.28125 167.65625 92.84375 167.96875 91.9375 C 168.5625 90.125 169.59375 88.5 171 87.15625 C 173.875 84.375 177.375 83.0625 180.78125 83.0625 C 186.1875 83.0625 191.375 86.3125 193.6875 92.28125 C 194.125 93.40625 194.5625 93.9375 195.5 93.9375 C 195.75 93.9375 196.03125 93.90625 196.375 93.84375 C 197.125 93.65625 197.875 93.59375 198.65625 93.59375 C 202.875 93.59375 207.21875 95.90625 209.53125 99.46875 C 212.59375 104.125 212.625 110.0625 209.6875 114.3125 C 209.0625 115.21875 208.34375 115.5625 207.28125 115.5625 C 207.25 115.5625 207.21875 115.5625 207.1875 115.5625 L 198.75 115.5625 C 197.96875 115.5625 197.28125 115.625 197.3125 116.75 C 197.3125 117.84375 197.9375 117.90625 198.71875 117.90625 C 198.71875 117.90625 198.75 117.90625 198.78125 117.90625 C 200.28125 117.90625 201.78125 117.8125 203.28125 117.8125 C 204.25 117.8125 205.1875 117.84375 206.125 118 C 206.5 118.03125 206.84375 118.0625 207.15625 118.0625 C 209.71875 118.0625 211.125 116.59375 212.25 114.28125 C 214.84375 108.875 214.75 103.59375 211.5 98.5625 C 208.5 93.90625 204.03125 91.5625 198.59375 91.5625 C 198.40625 91.5625 198.21875 91.5625 198.03125 91.5625 C 197.9375 91.5625 197.875 91.5625 197.78125 91.5625 C 196.3125 91.5625 195.65625 91.15625 195 89.84375 C 192.1875 84.4375 187.75 81.40625 181.5625 81.1875 C 181.375 81.1875 181.15625 81.1875 180.9375 81.1875 Z M 180.75 81.1875 "></path></clipPath><clipPath id="7ed1aa7810"><path d="M 269.1875 133.125 L 380.0625 133.125 L 380.0625 261.53125 L 269.1875 261.53125 Z M 269.1875 133.125 "></path></clipPath><clipPath id="dd155215ea"><path d="M 271.59375 133.125 C 269.5 133.125 269.46875 133.15625 269.46875 135.1875 L 269.46875 153.65625 C 269.46875 156.0625 269.46875 156.0625 271.84375 156.0625 C 274.21875 156.0625 276.625 156.0625 279 156.0625 C 288.59375 156.0625 298.15625 156.0625 307.75 156.0625 L 308.9375 156.09375 C 308.9375 156.09375 308.96875 156.09375 308.96875 156.09375 C 309.78125 156.09375 310.125 156.5 310.125 157.28125 L 310.125 158.9375 C 310.125 191.625 310.125 224.3125 310.125 256.96875 L 310.125 260 C 310.09375 260.9375 310.46875 261.25 311.4375 261.25 C 311.4375 261.25 311.46875 261.25 311.46875 261.25 L 335.0625 261.21875 C 337.5 261.21875 337.5 261.21875 337.5 258.71875 L 337.5 158.59375 C 337.5 156.0625 337.5 156.0625 339.9375 156.0625 L 378.09375 156.09375 C 378.09375 156.09375 378.125 156.09375 378.125 156.09375 C 379.5625 156.09375 380.0625 155.6875 380.0625 154.28125 L 380.0625 154.1875 C 380.0625 154.15625 380.0625 154.15625 380.0625 154.15625 L 380.03125 135.375 C 380.03125 133.15625 380.03125 133.15625 377.8125 133.15625 L 324.78125 133.15625 Z M 271.59375 133.125 "></path></clipPath><clipPath id="af68a6608c"><path d="M 255 178.53125 L 293.53125 178.53125 L 293.53125 261.53125 L 255 261.53125 Z M 255 178.53125 "></path></clipPath><clipPath id="c887acdb8a"><path d="M 293.34375 220.125 L 293.375 243.375 C 293.375 244.46875 293.0625 245.25 292.28125 246.03125 L 277.53125 260.5625 C 276.875 261.21875 276.1875 261.5 275.28125 261.5 L 256.78125 261.5 C 255.5 261.53125 255.03125 261.15625 255.0625 259.8125 L 255.0625 246 C 255.0625 244.78125 255.46875 244.28125 256.71875 244.3125 C 259.0625 244.375 261.40625 244.28125 263.78125 244.375 C 265.21875 244.4375 265.65625 243.9375 265.65625 242.5 L 265.625 207.96875 C 265.625 204.40625 265.59375 200.84375 265.65625 197.3125 C 265.65625 196.09375 265.28125 195.59375 264.03125 195.625 L 256.5 195.65625 C 255.5 195.6875 255.0625 195.34375 255.0625 194.28125 L 255.0625 180 C 255.0625 179 255.46875 178.59375 256.46875 178.59375 L 275.71875 178.59375 C 276.40625 178.59375 276.9375 178.90625 277.40625 179.375 L 292.5625 194.375 C 293.28125 195.0625 293.34375 195.8125 293.34375 196.6875 L 293.34375 220.125 "></path></clipPath></defs><g id="806e07f324"><g clip-rule="nonzero" clip-path="url(#3d2c766bc5)"><g clip-rule="nonzero" clip-path="url(#db2d9242ad)"><path style=" stroke:none;fill-rule:nonzero;fill:#750f6d;fill-opacity:1;" d="M 2.40625 79.6875 L 252.59375 79.6875 L 252.59375 263.09375 L 2.40625 263.09375 Z M 2.40625 79.6875 "></path></g></g><g clip-rule="nonzero" clip-path="url(#d388c11c04)"><g clip-rule="nonzero" clip-path="url(#d14287a0f2)"><path style=" stroke:none;fill-rule:nonzero;fill:#dda300;fill-opacity:1;" d="M 2.40625 79.6875 L 252.59375 79.6875 L 252.59375 263.09375 L 2.40625 263.09375 Z M 2.40625 79.6875 "></path></g></g><g clip-rule="nonzero" clip-path="url(#5fdf73e54a)"><g clip-rule="nonzero" clip-path="url(#4e4ad45cfe)"><path style=" stroke:none;fill-rule:nonzero;fill:#750f6d;fill-opacity:1;" d="M 2.40625 79.6875 L 252.59375 79.6875 L 252.59375 263.09375 L 2.40625 263.09375 Z M 2.40625 79.6875 "></path></g></g><g clip-rule="nonzero" clip-path="url(#4b7322ab0c)"><g clip-rule="nonzero" clip-path="url(#054cdd544b)"><path style=" stroke:none;fill-rule:nonzero;fill:#750f6d;fill-opacity:1;" d="M 2.40625 79.6875 L 252.59375 79.6875 L 252.59375 263.09375 L 2.40625 263.09375 Z M 2.40625 79.6875 "></path></g></g><g clip-rule="nonzero" clip-path="url(#12108f9981)"><g clip-rule="nonzero" clip-path="url(#4bc23c3ec6)"><path style=" stroke:none;fill-rule:nonzero;fill:#dda300;fill-opacity:1;" d="M 2.40625 79.6875 L 252.59375 79.6875 L 252.59375 263.09375 L 2.40625 263.09375 Z M 2.40625 79.6875 "></path></g></g><g clip-rule="nonzero" clip-path="url(#0b72f8ad13)"><g clip-rule="nonzero" clip-path="url(#9646758a30)"><path style=" stroke:none;fill-rule:nonzero;fill:#750f6d;fill-opacity:1;" d="M 2.40625 79.6875 L 252.59375 79.6875 L 252.59375 263.09375 L 2.40625 263.09375 Z M 2.40625 79.6875 "></path></g></g><g clip-rule="nonzero" clip-path="url(#b2d7abcb65)"><g clip-rule="nonzero" clip-path="url(#ec10e4a432)"><path style=" stroke:none;fill-rule:nonzero;fill:#750f6d;fill-opacity:1;" d="M 2.40625 79.6875 L 252.59375 79.6875 L 252.59375 263.09375 L 2.40625 263.09375 Z M 2.40625 79.6875 "></path></g></g><g clip-rule="nonzero" clip-path="url(#7ed1aa7810)"><g clip-rule="nonzero" clip-path="url(#dd155215ea)"><path style=" stroke:none;fill-rule:nonzero;fill:#dda300;fill-opacity:1;" d="M 253.5625 131.625 L 381.65625 131.625 L 381.65625 263.03125 L 253.5625 263.03125 Z M 253.5625 131.625 "></path></g></g><g clip-rule="nonzero" clip-path="url(#af68a6608c)"><g clip-rule="nonzero" clip-path="url(#c887acdb8a)"><path style=" stroke:none;fill-rule:nonzero;fill:#750f6d;fill-opacity:1;" d="M 253.5625 131.625 L 381.65625 131.625 L 381.65625 263.03125 L 253.5625 263.03125 Z M 253.5625 131.625 "></path></g></g><g style="fill:#750e6d;fill-opacity:1;"><g transform="translate(121.126162, 319.238764)"><path style="stroke:none" d="M 15.125 -28.96875 C 16.488281 -28.96875 17.675781 -28.851562 18.6875 -28.625 C 19.695312 -28.394531 20.535156 -28.078125 21.203125 -27.671875 C 21.867188 -27.273438 22.367188 -26.800781 22.703125 -26.25 C 23.035156 -25.707031 23.203125 -25.113281 23.203125 -24.46875 C 23.203125 -24.039062 23.113281 -23.65625 22.9375 -23.3125 C 22.757812 -22.96875 22.515625 -22.675781 22.203125 -22.4375 C 21.890625 -22.195312 21.519531 -22.007812 21.09375 -21.875 C 20.675781 -21.75 20.222656 -21.6875 19.734375 -21.6875 C 19.734375 -22.3125 19.648438 -22.925781 19.484375 -23.53125 C 19.316406 -24.144531 19.046875 -24.695312 18.671875 -25.1875 C 18.304688 -25.675781 17.828125 -26.070312 17.234375 -26.375 C 16.640625 -26.6875 15.910156 -26.84375 15.046875 -26.84375 C 13.535156 -26.84375 12.25 -26.5625 11.1875 -26 C 10.132812 -25.445312 9.273438 -24.640625 8.609375 -23.578125 C 7.953125 -22.523438 7.472656 -21.21875 7.171875 -19.65625 C 6.867188 -18.101562 6.71875 -16.320312 6.71875 -14.3125 C 6.71875 -12.53125 6.875 -10.894531 7.1875 -9.40625 C 7.5 -7.925781 7.992188 -6.65625 8.671875 -5.59375 C 9.347656 -4.53125 10.207031 -3.707031 11.25 -3.125 C 12.300781 -2.539062 13.566406 -2.25 15.046875 -2.25 C 16.015625 -2.25 16.875 -2.34375 17.625 -2.53125 C 18.375 -2.71875 19.035156 -2.96875 19.609375 -3.28125 C 20.179688 -3.59375 20.6875 -3.953125 21.125 -4.359375 C 21.5625 -4.773438 21.945312 -5.203125 22.28125 -5.640625 C 22.507812 -5.503906 22.691406 -5.3125 22.828125 -5.0625 C 22.972656 -4.8125 23.046875 -4.484375 23.046875 -4.078125 C 23.046875 -3.578125 22.875 -3.0625 22.53125 -2.53125 C 22.1875 -2 21.660156 -1.519531 20.953125 -1.09375 C 20.253906 -0.664062 19.363281 -0.3125 18.28125 -0.03125 C 17.195312 0.25 15.914062 0.390625 14.4375 0.390625 C 12.445312 0.390625 10.695312 0.0390625 9.1875 -0.65625 C 7.675781 -1.363281 6.40625 -2.363281 5.375 -3.65625 C 4.351562 -4.945312 3.582031 -6.492188 3.0625 -8.296875 C 2.539062 -10.109375 2.28125 -12.113281 2.28125 -14.3125 C 2.28125 -16.476562 2.550781 -18.457031 3.09375 -20.25 C 3.644531 -22.050781 4.457031 -23.59375 5.53125 -24.875 C 6.613281 -26.164062 7.953125 -27.171875 9.546875 -27.890625 C 11.148438 -28.609375 13.007812 -28.96875 15.125 -28.96875 Z M 15.125 -28.96875 "></path></g></g><g style="fill:#750e6d;fill-opacity:1;"><g transform="translate(155.274539, 319.238764)"><path style="stroke:none" d="M 14.46875 0.390625 C 12.894531 0.390625 11.484375 0.222656 10.234375 -0.109375 C 8.984375 -0.441406 7.925781 -0.96875 7.0625 -1.6875 C 6.195312 -2.414062 5.535156 -3.347656 5.078125 -4.484375 C 4.617188 -5.617188 4.390625 -7.003906 4.390625 -8.640625 L 4.390625 -24.15625 C 4.390625 -24.75 4.300781 -25.222656 4.125 -25.578125 C 3.957031 -25.929688 3.722656 -26.207031 3.421875 -26.40625 C 3.117188 -26.601562 2.769531 -26.726562 2.375 -26.78125 C 1.976562 -26.84375 1.554688 -26.875 1.109375 -26.875 L 0.609375 -26.875 L 0.609375 -28.5625 L 12.25 -28.5625 L 12.25 -26.875 L 11.71875 -26.875 C 11.28125 -26.875 10.859375 -26.84375 10.453125 -26.78125 C 10.046875 -26.71875 9.695312 -26.582031 9.40625 -26.375 C 9.113281 -26.175781 8.878906 -25.882812 8.703125 -25.5 C 8.523438 -25.125 8.4375 -24.625 8.4375 -24 L 8.4375 -8.40625 C 8.4375 -7.238281 8.601562 -6.25 8.9375 -5.4375 C 9.269531 -4.625 9.734375 -3.960938 10.328125 -3.453125 C 10.921875 -2.953125 11.625 -2.582031 12.4375 -2.34375 C 13.25 -2.113281 14.144531 -2 15.125 -2 C 16.28125 -2 17.273438 -2.15625 18.109375 -2.46875 C 18.953125 -2.78125 19.648438 -3.210938 20.203125 -3.765625 C 20.753906 -4.316406 21.164062 -4.972656 21.4375 -5.734375 C 21.707031 -6.492188 21.84375 -7.332031 21.84375 -8.25 L 21.84375 -24.15625 C 21.84375 -24.75 21.753906 -25.222656 21.578125 -25.578125 C 21.398438 -25.929688 21.160156 -26.207031 20.859375 -26.40625 C 20.554688 -26.601562 20.207031 -26.726562 19.8125 -26.78125 C 19.414062 -26.84375 19 -26.875 18.5625 -26.875 L 18.046875 -26.875 L 18.046875 -28.5625 L 28.09375 -28.5625 L 28.09375 -26.875 L 27.5625 -26.875 C 27.113281 -26.875 26.6875 -26.84375 26.28125 -26.78125 C 25.882812 -26.71875 25.539062 -26.582031 25.25 -26.375 C 24.957031 -26.175781 24.722656 -25.882812 24.546875 -25.5 C 24.367188 -25.125 24.28125 -24.625 24.28125 -24 L 24.28125 -8.171875 C 24.28125 -6.835938 24.066406 -5.640625 23.640625 -4.578125 C 23.222656 -3.515625 22.597656 -2.613281 21.765625 -1.875 C 20.941406 -1.144531 19.914062 -0.582031 18.6875 -0.1875 C 17.46875 0.195312 16.0625 0.390625 14.46875 0.390625 Z M 14.46875 0.390625 "></path></g></g><g style="fill:#750e6d;fill-opacity:1;"><g transform="translate(193.543602, 319.238764)"><path style="stroke:none" d="M 18.5625 0 L 18.5625 -1.6875 L 19.078125 -1.6875 C 19.535156 -1.6875 19.960938 -1.71875 20.359375 -1.78125 C 20.753906 -1.84375 21.097656 -1.972656 21.390625 -2.171875 C 21.691406 -2.378906 21.925781 -2.671875 22.09375 -3.046875 C 22.269531 -3.421875 22.359375 -3.921875 22.359375 -4.546875 L 22.359375 -13.921875 L 9.359375 -13.921875 L 9.359375 -4.546875 C 9.359375 -3.921875 9.445312 -3.421875 9.625 -3.046875 C 9.800781 -2.671875 10.035156 -2.378906 10.328125 -2.171875 C 10.617188 -1.972656 10.960938 -1.84375 11.359375 -1.78125 C 11.765625 -1.71875 12.191406 -1.6875 12.640625 -1.6875 L 13.171875 -1.6875 L 13.171875 0 L 1.53125 0 L 1.53125 -1.6875 L 2.03125 -1.6875 C 2.488281 -1.6875 2.914062 -1.71875 3.3125 -1.78125 C 3.707031 -1.84375 4.054688 -1.972656 4.359375 -2.171875 C 4.660156 -2.378906 4.894531 -2.671875 5.0625 -3.046875 C 5.226562 -3.421875 5.3125 -3.921875 5.3125 -4.546875 L 5.3125 -24.15625 C 5.3125 -24.75 5.222656 -25.222656 5.046875 -25.578125 C 4.867188 -25.929688 4.628906 -26.207031 4.328125 -26.40625 C 4.035156 -26.601562 3.691406 -26.726562 3.296875 -26.78125 C 2.898438 -26.84375 2.476562 -26.875 2.03125 -26.875 L 1.53125 -26.875 L 1.53125 -28.5625 L 13.171875 -28.5625 L 13.171875 -26.875 L 12.640625 -26.875 C 12.191406 -26.875 11.765625 -26.84375 11.359375 -26.78125 C 10.960938 -26.71875 10.617188 -26.582031 10.328125 -26.375 C 10.035156 -26.175781 9.800781 -25.882812 9.625 -25.5 C 9.445312 -25.125 9.359375 -24.625 9.359375 -24 L 9.359375 -15.921875 L 22.359375 -15.921875 L 22.359375 -24 C 22.359375 -24.625 22.269531 -25.125 22.09375 -25.5 C 21.925781 -25.882812 21.691406 -26.175781 21.390625 -26.375 C 21.097656 -26.582031 20.753906 -26.71875 20.359375 -26.78125 C 19.960938 -26.84375 19.535156 -26.875 19.078125 -26.875 L 18.5625 -26.875 L 18.5625 -28.5625 L 30.203125 -28.5625 L 30.203125 -26.875 L 29.6875 -26.875 C 29.226562 -26.875 28.800781 -26.84375 28.40625 -26.78125 C 28.007812 -26.71875 27.660156 -26.582031 27.359375 -26.375 C 27.066406 -26.175781 26.832031 -25.882812 26.65625 -25.5 C 26.488281 -25.125 26.40625 -24.625 26.40625 -24 L 26.40625 -4.359375 C 26.40625 -3.773438 26.492188 -3.300781 26.671875 -2.9375 C 26.847656 -2.582031 27.082031 -2.3125 27.375 -2.125 C 27.675781 -1.945312 28.023438 -1.828125 28.421875 -1.765625 C 28.828125 -1.710938 29.25 -1.6875 29.6875 -1.6875 L 30.203125 -1.6875 L 30.203125 0 Z M 18.5625 0 "></path></g></g><g style="fill:#750e6d;fill-opacity:1;"><g transform="translate(234.859242, 319.238764)"><path style="stroke:none" d="M 17.640625 -22.203125 C 18.066406 -22.703125 18.421875 -23.144531 18.703125 -23.53125 C 18.992188 -23.914062 19.21875 -24.265625 19.375 -24.578125 C 19.539062 -24.890625 19.660156 -25.160156 19.734375 -25.390625 C 19.804688 -25.628906 19.84375 -25.84375 19.84375 -26.03125 C 19.84375 -26.375 19.679688 -26.609375 19.359375 -26.734375 C 19.035156 -26.859375 18.539062 -26.921875 17.875 -26.921875 L 17.875 -28.5625 L 26.71875 -28.5625 L 26.71875 -26.921875 C 26.257812 -26.921875 25.816406 -26.832031 25.390625 -26.65625 C 24.972656 -26.476562 24.550781 -26.226562 24.125 -25.90625 C 23.707031 -25.59375 23.273438 -25.203125 22.828125 -24.734375 C 22.378906 -24.273438 21.894531 -23.753906 21.375 -23.171875 L 15.5625 -16.640625 L 24 -4.890625 C 24.769531 -3.828125 25.507812 -3.023438 26.21875 -2.484375 C 26.925781 -1.953125 27.65625 -1.6875 28.40625 -1.6875 L 28.484375 -1.6875 L 28.484375 0 L 28.046875 0 C 26.703125 0 25.597656 -0.0507812 24.734375 -0.15625 C 23.878906 -0.257812 23.160156 -0.445312 22.578125 -0.71875 C 21.992188 -1 21.484375 -1.367188 21.046875 -1.828125 C 20.609375 -2.285156 20.144531 -2.875 19.65625 -3.59375 L 12.75 -13.484375 L 9.359375 -10.71875 L 9.359375 -4.546875 C 9.359375 -3.921875 9.445312 -3.421875 9.625 -3.046875 C 9.800781 -2.671875 10.035156 -2.378906 10.328125 -2.171875 C 10.617188 -1.972656 10.960938 -1.84375 11.359375 -1.78125 C 11.765625 -1.71875 12.191406 -1.6875 12.640625 -1.6875 L 13.171875 -1.6875 L 13.171875 0 L 1.53125 0 L 1.53125 -1.6875 L 2.03125 -1.6875 C 2.476562 -1.6875 2.898438 -1.710938 3.296875 -1.765625 C 3.691406 -1.828125 4.035156 -1.945312 4.328125 -2.125 C 4.628906 -2.3125 4.867188 -2.582031 5.046875 -2.9375 C 5.222656 -3.300781 5.3125 -3.773438 5.3125 -4.359375 L 5.3125 -24.15625 C 5.3125 -24.75 5.222656 -25.222656 5.046875 -25.578125 C 4.867188 -25.929688 4.628906 -26.207031 4.328125 -26.40625 C 4.035156 -26.601562 3.691406 -26.726562 3.296875 -26.78125 C 2.898438 -26.84375 2.476562 -26.875 2.03125 -26.875 L 1.53125 -26.875 L 1.53125 -28.5625 L 13.171875 -28.5625 L 13.171875 -26.875 L 12.640625 -26.875 C 12.191406 -26.875 11.765625 -26.84375 11.359375 -26.78125 C 10.960938 -26.71875 10.617188 -26.582031 10.328125 -26.375 C 10.035156 -26.175781 9.800781 -25.882812 9.625 -25.5 C 9.445312 -25.125 9.359375 -24.625 9.359375 -24 L 9.359375 -12.71875 Z M 17.640625 -22.203125 "></path></g></g></g></svg>